<?xml version="1.0" encoding="UTF-8"?>
<svg id="Layer_1" xmlns="http://www.w3.org/2000/svg" viewBox="0 0 342.64 303.18">
  <defs>
    <style>
      .cls-1 {
        fill: #fff;
      }
    </style>
  </defs>
  <g id="Logo">
    <path class="cls-1" d="M45.08,27.86c-1.1-1.06-1.09-2.25-.27-3.5.17-.27.31-.63.29-.94-.1-1.21.32-2.24,1.09-3.28-.74-.99-.65-1.95,0-3.07,1.04-1.81.51-3.93.84-5.89.09-.56.06-1.17.28-1.67.46-1.05.73-2.05.69-3.26-.03-.87.61-1.81,1.1-2.63.55-.93,1.28-1.75,1.9-2.63.85-1.21,2.04-1.01,3.27-.89.93.1,1.69.57,1.67,1.41-.02,1.03-.24,2.21-.81,3.03-.7,1.01-.56,2.03-.68,3.06-.09.77.04,1.6-.2,2.32-.49,1.47-1.03,2.9-.66,4.48-1.01,1.41-.61,2.86-.13,4.31-.83,2.28-.49,4.61-.36,6.94.02.38-.12.84-.35,1.14-.78.99-.8,2.1-.74,3.27.09,1.77.17,3.54.21,5.32,0,.43-.08.96-.33,1.28-.75.91-.5,1.87-.45,2.9.08,1.58-.13,3.18-.12,4.77.01,1.91-.67,3.82-.04,5.73.07.2.08.49-.01.68-.59,1.28-.52,2.68-.81,3.99-.21.94-.16,1.79-.09,2.69.01.17.09.34.08.51-.21,2-.42,4-.64,6-.04.39-.17.78-.2,1.17-.05.78-.21,1.6-.07,2.35.42,2.25-.41,4.33-.99,6.36-.48,1.66-.35,3.02.2,4.58.34.96.57,2.12-.09,3.15-.09.14-.19.35-.15.49.51,1.55-.02,3.04-.29,4.54-.13.71-.36,1.41-.51,2.12-.07.35-.08.72-.07,1.09.01.61.29,1.35.04,1.82-.59,1.1-.39,2.21-.4,3.34-.01.96-.21,1.91-.34,3.04,1.3-.51,2.34-1.2,2.65-2.38.44-1.7,1.67-2.83,2.58-4.18.09-.14.33-.23.35-.37.4-2.42,2.76-3.47,3.76-5.4,1.18-2.27,3.04-4.03,4.21-6.32.69-1.34,1.59-2.7,2.81-3.78.73-.64,1.43-1.58,1.64-2.5.32-1.38,1.32-1.91,2.29-2.56.23-.16.52-.22.8-.33.53-1.06.21-2.41,1.18-3.31.41-.38.72-.87,1.11-1.27.77-.77,1.54-1.53,1.75-2.68.06-.33.21-.66.4-.95.9-1.38,1.89-2.7,2.72-4.12.82-1.41,1.28-3.07,2.27-4.33,1.05-1.34,1.62-2.86,2.35-4.32.56-1.14,1.31-2.18,1.75-3.4.67-1.84,3.22-2.91,5-2.11.56.25,1.11.86,1.35,1.43.3.71.49,1.61.33,2.35-.36,1.71-.67,3.54-1.9,4.87-1.09,1.18-1.62,2.46-1.56,4.02.03.82-.29,1.39-1.02,1.83-1.09.66-1.62,1.72-1.63,2.99-.01.95-.2,1.76-.9,2.51-.39.42-.52,1.13-.64,1.73-.16.81-.41,1.43-1.14,1.99-.67.52-1.03,1.45-1.5,2.23-.23.39-.29.96-.61,1.21-1.37,1.03-1.7,2.61-2.37,4.02-1.06,2.26-2.49,3.77-4.88,5.21-.03.44,0,.96-.12,1.45-.15.66-.22,1.5-.65,1.91-1.09,1.03-1.48,2.41-2.21,3.61-.34.55-.43,1.34-1.29,1.48-.14.02-.32.2-.37.34-.45,1.4-1.78,2.02-2.62,3.06-.66.81-1.67,1.45-1.64,2.71,0,.1-.07.22-.14.31-1.12,1.41-2.24,2.82-3.37,4.23-.07.09-.24.12-.27.2-.44,1.56-1.91,2.37-2.66,3.68-.32.55-.53,1.08-1.2,1.36-.6.24-.75.75-.43,1.42.36.75.08,1.43-.53,1.98-.04.04-.1.06-.13.11-.44.84-.72,1.82-1.36,2.47-.63.65-1.63.94-2.43,1.45-.19.12-.38.52-.33.72.38,1.47-.64,1.76-1.65,2.02-.3,1.31-.64,2.57-.83,3.85-.05.33.31.87.63,1.07.86.53,1.42,1.25,1.94,2.1.49.8.94,1.7,1.94,2.12.36.15.62.66.83,1.06,1.09,2.06,2.36,4,4.21,5.7.92-.43,1.69-1.1,2.05-2.32.44-1.49,1.65-2.44,2.83-3.33.35-.26.99-.22,1.49-.19.66.05,1.31-.16,1.37-.75.14-1.41,1.29-2.07,2.12-2.78,1.23-1.04,2.2-2.28,3.33-3.39.12-.12.18-.33.32-.4,1.81-.84,2.61-2.81,4.28-3.8.14-.08.26-.23.34-.38.72-1.27,1.73-2.25,2.97-3.03,2.27-1.42,3.77-3.57,5.4-5.62,1.13-1.42,2.47-2.64,4.13-3.53.77-.41,1.22-1.43,1.77-2.21.49-.7.87-1.49,1.37-2.18.67-.92,1.3-1.85,2.4-2.39.58-.29,1.02-.89,1.49-1.38.24-.24.35-.66.62-.81,1.15-.61,1.75-1.44,1.94-2.81.09-.65,1.04-1.35,1.76-1.7.91-.43,1.34-1.03,1.73-1.92.65-1.49,1.37-2.97,2.65-4.07.21-.18.46-.43.51-.67.24-1.45,1.23-2.23,2.38-2.94.46-.29.99-.75,1.11-1.23.49-1.94,1.97-3.09,3.41-4.12.85-.61,2.16-.77,3.26-.77,1.59,0,2.42,1.63,1.85,3.34-.44,1.3-.91,2.59-1.42,3.87-.47,1.16-.98,2.31-1.51,3.45-.38.82-.71,1.66-1.73,1.98-.31.09-.51.57-.72.9-.09.13-.1.33-.12.5-.13,1.02-1.02,1.44-1.56,2.14-.52.68-.53,1.74-.99,2.5-.25.41-.96.66-1.49.74-.83.11-1.29.51-1.34,1.29-.06.93-.51,1.58-1.13,2.22-1.61,1.66-2.66,3.73-4.06,5.56-.31.41-.6.91-1.03,1.13-1.46.75-1.9,2.16-2.51,3.49-.34.75-.52,1.6-1.41,2.03-.35.17-.56.67-.8,1.04-.28.43-.43,1.17-.79,1.28-1.44.47-2.36,1.68-3.66,2.31-.45.21-.96.42-1.26.78-.86,1.04-1.48,2.34-2.48,3.19-1.49,1.26-2.15,3.33-4.24,4.04-1.14.39-1.93,1.39-2.21,2.68-.13.6-.43,1.17-.7,1.74-.46.98-1.18,1.64-2.33,1.67-.78.02-1.27.43-1.58,1.11-.09.2-.2.48-.37.56-2.05.91-3.06,2.98-4.78,4.26-.36.27-.73.57-1,.92-.58.73-1.28,1.14-2.16,1.52-.93.4-1.62,1.35-2.4,2.08-.33.31-.6.68-.91,1.01-.37.39-.41.73-.08,1.21.29.41.43.93.75,1.65-1.1-.44-1.87-.75-2.77-1.11-.25.52-.49.9-.61,1.32-.29.99-.69,1.77-1.86,2-.35.07-.63.58-.92.91-.52.58-.92,1.45-1.56,1.72-1.25.52-1.84,1.47-2.35,2.57-.23.51-.44,1.02-.73,1.71,1.75.12,3.42.35,5.09.31,1.92-.06,3.87.08,5.75-.51.32-.1.7-.07,1-.21,1.32-.6,2.64-.76,4.13-.73,2.38.04,4.78-.34,7.15-.71,1.34-.21,2.65-.7,3.95-1.16,2.04-.72,4-1.69,6.09-2.2,1.46-.36,2.86-.69,4.13-1.5.26-.17.68-.2,1.01-.14,1.28.21,2.35-.31,3.44-.83.91-.44,1.88-.75,2.81-1.16,1.04-.45,2.03-1.03,3.09-1.37,1.07-.35,2.21-.49,3.32-.7,1.55-.3,3.13-.5,4.35-1.68.28-.27.67-.63.99-.61,1.38.07,2.31-.8,3.43-1.33,1.91-.89,3.98-1.43,5.97-2.15.79-.28,1.57-.63,2.34-.96.16-.07.29-.22.45-.24,1.42-.18,2.5-1.02,3.61-1.82.9-.64,1.85-1.09,3.01-1.05.44.02.88-.19,1.07-.24,1.24-1.6,1.87-3.27,4.29-3.38,1.84-.09,3.64-1.17,5.45-1.81.16-.06.28-.23.44-.27,2.73-.58,5.49-1.32,8.12.33.42.26.87.63,1.07,1.07.54,1.2,1.06,2.42,1.38,3.69.33,1.34.3,2.57-1.61,3.25-.87.31-.99,1.01-1.14,1.79,1.3.97,2.6,1.51,4.3,1.03.92-.26,2.01-.41,2.97.24.25.17.66.12,1,.13,1.14.04,2.29.11,3.43.08.68-.02,1.4-.09,2.02-.34,1.29-.53,2.58-.34,3.66.25,1.23.66,2.48.76,3.79.92,1.24.15,2.47.45,3.71.6.72.09,1.46.02,2.35.02.05-.94-.04-1.75.16-2.48.2-.74.39-1.41.01-2.14-.07-.14-.02-.34,0-.51.11-1.69.24-3.39.32-5.08.02-.43-.04-.93-.25-1.29-.59-.98-.65-2.02-.7-3.11-.04-.88-.4-1.75-.42-2.62-.02-.81.21-1.63.32-2.44.05-.39-.05-.83.11-1.17.31-.67.15-1.16-.27-1.72-.45-.61-.68-1.33-.28-2.1.48-.92.36-1.86.12-2.82-.32-1.27-.54-2.51-.36-3.87.17-1.27-.15-2.6-.15-3.91,0-.7.4-1.44.27-2.1-.13-.68-.92-1.26-1-1.93-.19-1.66-.67-3.33-.18-5.01.06-.22.19-.5.1-.67-.96-1.94-.05-3.86,0-5.78.02-.78-.21-1.57-.25-2.36-.06-1.07-.04-2.14-.06-3.21,0-.45-.02-.91-.05-1.36-.04-.68-.25-1.4-.11-2.04.21-.92.13-1.7-.25-2.55-.22-.49-.29-1.14-.17-1.66.3-1.32-.27-2.77.62-3.99.03-.04.03-.11.02-.17-.21-1.57-.42-3.14-.63-4.71-.05-.38-.25-.83-.12-1.14.74-1.8.29-3.56.06-5.38-.2-1.61-.31-3.25.2-4.92.35-1.13.36-2.56-.02-3.68-.56-1.66-.24-3.27-.29-4.89-.04-1.16.32-2.34.48-3.51.05-.39.06-.79.05-1.19-.06-1.54.33-2.16,1.77-2.75,2.32-.96,4.32-.5,6,1.4.11.13.3.25.32.4.28,1.72.75,3.44.23,5.2-.09.31-.28.62-.28.94-.02,1.13-.04,2.27.06,3.4.15,1.62.41,3.22.6,4.83.05.4.13.84,0,1.19-.58,1.63-.14,3.29-.24,4.93-.06.96-.01,1.95-.22,2.88-.27,1.22-.26,2.3.31,3.47.32.64.3,1.58.11,2.3-.25.94-.3,1.82.08,2.66.36.8.24,1.51.09,2.33-.19.99-.21,2.04-.14,3.04.13,1.76.48,3.5.58,5.26.08,1.37-.04,2.75.54,4.05.13.3.13.68.11,1.02-.07,1.35-.47,2.76-.19,4.02.34,1.56.89,3-.04,4.52-.1.17.15.53.17.81.06.9.08,1.8.11,2.71,0,.28-.1.61.02.83,1.15,2.28.5,4.72.63,7.08.02.45.11.9.18,1.35.1.61.21,1.22.31,1.83.05.27-.02.65.13.81.82.85.77,1.67.18,2.64-.41.67-.32,1.44.08,2.14.51.88.57,1.81.57,2.8,0,.96.26,1.93.23,2.89-.05,1.29-.27,2.57-.42,3.85-.08.72-.31,1.46-.22,2.15.38,2.71,1.18,5.36.96,8.14-.03.39.1.79.17,1.19.23,1.32,1.18,1.94,2.47,1.62.66-.17,1.32-.37,2-.46,1.08-.14,2.13-.11,3.18.4,1.71.83,3.56.4,5.36.35.33,0,.68-.24.99-.19,1.29.21,2.61.36,3.83.78,2,.7,4,1.41,6.12,1.51,3.58.18,7.08,1.25,10.7.94.17-.01.36-.05.51.01,1.85.79,3.81.5,5.73.69.6.06,1.17.43,1.75.67.57.23,1.13.49,1.98.85-.17-.57-.17-.91-.34-1.13-.76-.97-.94-1.98-.71-3.21.32-1.73.47-3.49.6-5.25.05-.71-.13-1.44-.19-2.17-.05-.63-.15-1.26-.12-1.88.12-2.05.32-4.09.43-6.14.03-.62-.08-1.25-.16-1.87-.23-1.67.13-2.38,1.75-2.83,1.5-.42,3.01-.5,4.55.06.75.27,1.15.68,1.3,1.41.37,1.72.53,3.48,1.37,5.09.24.47.07,1.21-.04,1.81-.19.95-.57,1.87-.72,2.82-.09.59-.02,1.27.19,1.83.56,1.55.81,3.09.26,4.7-.09.26-.13.6-.04.84.4,1.08.84,2.14.44,3.32.93,1.49.44,3.31,1.01,4.81.54,1.42,1.09,2.73.86,4.26.93,1,.41,2.11.27,3.21-.1.82.02,1.57.49,2.41.49.88.43,2.1.48,3.17.05,1.26.1,2.47.7,3.66.4.79.4,1.77.66,2.64.21.69.38,1.6.88,1.96.99.71,1,1.55.92,2.55-.03.37-.11.85.07,1.12,1.21,1.72,1.85,3.63,2.26,5.67.24,1.22.57,1.48,1.74,1.46,1.71-.02,3.55.24,5.09-.31,2.91-1.03,5.67-.98,8.56-.17.91.25,1.93.15,2.9.13.74-.02,1.2-.54,1.18-1.23-.04-1.17.35-1.93,1.27-2.77.83-.77,1.85-1.73,1.72-3.21-.04-.43.28-1.02.62-1.35,1.22-1.2,1.9-2.66,2.3-4.29.16-.65.37-1.43.84-1.84,1.37-1.21,1.68-2.88,1.94-4.47.28-1.74,1.14-3.21,1.71-4.8.37-1.03.41-2.27,1.47-3,.11-.08.09-.44.04-.66-.33-1.58.15-3.05.56-4.54.06-.22.22-.45.19-.65-.36-1.81.36-3.33,1.12-4.9.38-.79.47-1.72.75-2.83-.67-1-.74-2.23.16-3.53.39-.57.58-1.24.17-2.07-.31-.63-.2-1.59.02-2.31.4-1.3.57-2.54.07-3.85-.13-.35-.18-.84-.04-1.18.51-1.29.57-2.63.76-3.98.22-1.58-.51-2.82-.65-4.3-.42.06-.64.1-.86.12-2.19.13-3.06-.24-3.11-2.36-.01-.49-.29-.98-.46-1.47-.23-.68-.56-1.22-1.37-1.37-.33-.06-.81-.38-.87-.66-.4-1.68-1.64-3.1-1.48-4.98.07-.77-.24-1.57-.33-2.37-.18-1.61.35-2.93,1.71-3.86.32-.22.7-.39,1.08-.46,1.4-.28,2.8-.54,4.21-.73.49-.07,1.04-.02,1.5.13,1.35.44,2.7.88,3.99,1.46,1.54.68,2.68,1.74,3.47,3.35.8,1.65,1.56,3.26,1.78,5.08,0,.06.02.13.05.16,1.55,1.41.77,3.18.81,4.85.03,1.17.3,2.38.68,3.49.58,1.7.82,3.31-.2,4.93-.62.98-.2,1.92.39,2.71,1.24,1.66,1.01,3.33.05,4.94-.61,1.03-.99,1.93-.65,3.2.29,1.08.14,2.26-.4,3.35-.62,1.24-1.06,2.5-.71,3.97.15.62-.15,1.34-.21,2.02-.08.96-.17,1.93-.17,2.9,0,1.25-.38,2.26-1.23,3.23-.57.65-.83,1.61-1.08,2.47-.47,1.58-.86,3.19-1.22,4.81-.16.71-.09,1.47-.28,2.17-.24.92-.68,1.79-.95,2.71-.6,2.08-1.14,4.18-1.71,6.27-.28,1.03-.64,1.93-1.65,2.62-.83.57-1.42,1.6-1.88,2.55-.57,1.17-.91,2.45-1.34,3.69-.13.37-.18.76-.29,1.22,2.51.82,4.9,1.2,7.35.12.88-.39,1.81-.84,2.75-.9,1.67-.1,3.35.22,4.9.87.45.19.81.82,1.02,1.33.41.94.72,1.93,1,2.92.23.81.15,1.6-.46,2.25-.39.42-.84.79-1.16,1.25-.59.88-1.39,1.11-2.37,1.02-.79-.07-1.6-.24-2.32.33-.15.11-.45.09-.66.05-2.43-.57-4.84-.4-7.31-.09-2.54.32-5.13.2-7.7.3-1.57.06-3.04.06-4.29,1.51-.89,1.03-1.86,2.29-3.41,2.62-.18.04-.41.28-.46.48-.37,1.25-1.44,1.67-2.48,1.85-1.61.28-3.17,1.08-4.88.58-.16-.05-.36-.07-.51-.02-2.13.76-4.29-.3-6.44.14-.65.13-1.26-.17-1.69-.9-.47-.81-1.25-1.24-2.31-1.22-.77.02-1.46-.2-2.07-.94-.65-.79-1.7-1.24-2.56-1.86-.36-.25-.66-.58-1.02-.83-.27-.19-.69-.51-.88-.42-1.02.47-1.93-.25-2.83-.19-2.4.19-4.77.09-7.16.11-1.55.01-3.16.2-4.75.27-1.29.06-2.57.44-3.86.65-.61.1-1.24.24-1.84.16-1.47-.19-2.92-.61-4.4-.71-1.11-.08-2.29.06-3.37.36-1.34.38-2.6.1-3.86-.18-1.48-.32-2.88-.4-4.37.06-1.95.6-3.9,1.02-5.89-.24-1.22-.77-2.65-.22-3.99.16-1.96.56-3.96.95-6.01.24-.04.16-.14.33-.11.48.24,1.26.18,2.47-.29,3.71-.3.78-.33,1.67-.45,2.52-.03.22-.02.48.08.67,1.27,2.46,1.3,2.95.63,5.49-.44,1.66-.9,3.35.09,5.01.03.05.05.11.05.16-.3,2.4.67,4.7.48,7.12-.14,1.87-.71,3.85.36,5.71.2.35.14.91.06,1.35-.36,2.09-.12,4.15.34,6.19.18.81.25,1.56-.24,2.31-.46.71-.43,1.46-.2,2.29.43,1.57.45,3.13-.22,4.71-.25.6-.06,1.45.09,2.14.54,2.52,1,5.13.41,7.61-.41,1.74-.3,3.47-.55,5.19-.21,1.44.36,2.98.58,4.48.12.04.24.07.36.11.31-.41.61-.82.95-1.28.09.09.29.21.28.32-.14,2.5,1.45,4.66,1.4,7.14,0,.16.06.4.17.46.99.52.78,1.52,1,2.36.23.86.37,1.66-.05,2.5-.1.19-.16.51-.06.67,1.1,1.91.05,4.08.73,6.05.1.28,0,.68-.12.97-.44,1-.35,1.95.36,2.72.62.67.62,1.42.66,2.22.08,1.36.2,2.72.31,4.08.02.23.2.52.11.66-.9,1.51.04,3.17-.39,4.71-.06.21-.09.49,0,.67.67,1.39.18,2.59-.33,3.92-.5,1.29-1.05,2.62-.49,4.22.32.92-.14,2.28-.61,3.28-.72,1.52-1.7,2.92-2.66,4.32-.23.33-.77.6-1.19.63-1.91.14-3.93.76-5.68-.41-.9-.6-1.55-1.6-2.29-2.44-.26-.3-.42-.68-.69-.97-1.02-1.12-1.35-2.44-.74-3.79.82-1.82.55-3.47-.44-5.06-.7-1.13-.94-2.31-.83-3.6.03-.34.1-.73-.04-1.01-.45-.92-.24-1.77.08-2.66.24-.69.4-1.33-.02-2.12-.42-.79-.37-1.68.29-2.55.97-1.28.33-2.78.1-4.15-.2-1.16-.82-2.25-.53-3.5.04-.15,0-.36-.1-.49-1.07-1.6-.69-3.21-.27-4.93.26-1.06.22-2.34-.12-3.37-.71-2.16,0-4.18.18-6.27.11-1.3-.03-2.62.17-3.9.25-1.59.25-3.08-.57-4.53-.15-.27.07-.78.16-1.17.16-.73.34-1.44-.22-2.11-.16-.19-.21-.54-.19-.81.12-1.3.28-2.6.45-3.9.4-3.16.69-6.32-.25-9.45-.13-.43-.07-.91-.1-1.36-.08-1.25-.19-2.49-.24-3.74-.02-.57-.08-1.19.1-1.7.5-1.47.2-2.94.12-4.4-.06-1.12,0-2.18.18-3.32.34-2.15.67-4.37.16-6.58-.19-.83-.09-1.74-.34-2.54-.62-1.97-.47-4.01-.56-6-.11-2.33.1-4.67.17-7.01.02-.62.21-1.37-.05-1.85-.73-1.37-.29-2.52.32-3.72.29-.57.39-1.12-.11-1.74-.81-.99-1.23-1.35-2.31-.78-1.36.72-2.58.25-3.8-.1-.72-.21-1.26-.2-1.95.09-1.15.49-2.37.59-3.65.68-2.54.16-5,.08-7.44-.63-1.65.51-3.28-.02-4.92-.09-.26-.01-.52.18-.78.25-.81.19-1.62.37-2.43.53-.39.07-.8.13-1.19.1-.6-.04-1.21-.13-1.8-.24-.9-.16-1.85-.64-2.67-.47-2,.42-3.85-.25-5.77-.37-.41-.03-.84.1-1.26.17-.39.07-.77.2-1.16.23-2.15.13-4.32.04-6.43.65-.35.1-.8.02-1.16-.09-1.78-.56-3.66-.97-5.41-.45-2.53.76-5.06.29-7.58.46-.83.06-1.68-.41-2.52-.4-1.24.01-2.47.31-3.71.36-1.94.07-3.88.01-5.82.04-1.77.03-3.53.09-5.3.16-.26.01-.51.19-.76.29-.36.14-.72.36-1.09.4-1.47.14-2.94.23-4.41.33-.23.02-.5-.05-.68.04-1.71.88-3.47.2-5.2.17-.56,0-1.23-.13-1.66.12-1.81,1.08-3.72.78-5.65.63-1.36-.11-2.73,0-4.09-.1-2.28-.16-4.49.78-6.78.37-.17-.03-.35-.04-.51,0-1.5.25-3,.54-4.51.76-.73.11-1.49.17-2.22.11-1.64-.13-3.27-.11-4.91-.52-.93-.23-2.01.23-3.02.29-1.36.09-2.72.15-4.09.14-.73,0-1.35-.2-1.82-.99-.86-1.44-1.45-2.83-.89-4.52.1-.31.06-.67.06-1.01,0-1.64,1-2.73,2.14-3.7.31-.26.85-.3,1.29-.34.67-.05,1.39-.16,2.02.01,1.53.43,2.92-.34,4.38-.39.38-.01.8-.17,1.13-.39.96-.64,1.91-1.23,3.14-1.27.32,0,.62-.45.93-.69.41-.31.79-.83,1.23-.87,2.18-.22,3.75-1.92,5.88-2.29.67-.11,1.23-.76,1.87-1.13,1.07-.62,2.15-1.23,3.25-1.8.45-.24,1-.29,1.4-.58,1.17-.85,2.28-1.66,3.9-1.34.5.1,1.15-.41,1.7-.7,1.45-.77,2.98-1.36,4.37-2.29,1.63-1.1,3.6-1.67,5.28-2.71,2.08-1.29,4.71-1.75,6.14-4.07.24-.38.98-.58,1.51-.62,1.52-.13,2.67-1.01,3.38-2.14.83-1.32,1.97-1.98,3.27-2.58,1.19-.55,2.39-1.08,3.56-1.67.34-.17.59-.52.9-.76.4-.31.79-.77,1.24-.86,2.13-.43,3.35-2.07,4.75-3.46.58-.58,1.01-1.31,1.66-2.19-.84,0-1.69-.25-1.99.04-1.23,1.23-3.24.68-4.4,2.11-.36.45-1.41.32-2.12.53-.53.15-1.32.28-1.48.65-.6,1.35-1.83,1.48-2.96,1.68-2.82.51-5.49,1.48-8.14,2.52-.67.26-1.44.39-2.16.36-1.05-.05-1.93.11-2.59.97-.66.86-1.6,1.27-2.63,1.46-.48.09-1.07.17-1.47-.03-1.51-.76-2.96-.34-4.29.28-1.31.61-2.52,1.32-4.04,1.19-.32-.03-.67.14-.99.25-2.32.8-4.88.79-7.06,2.06-.14.08-.33.1-.5.1-1.47-.03-2.94-.13-4.4-.08-1.08.04-2.14.31-3.22.44-1.01.12-2.03.26-3.04.28-1.12.03-2.32.17-3.35-.15-1.85-.57-3.72-.58-5.6-.63-1.3-.04-2.63,0-3.91.25-1.22.24-1.13.45-1.25,1.78-.16,1.64-.39,3.29-.84,4.86-.44,1.52-.43,3.04-.51,4.58-.04.78-.08,1.64-.41,2.33-.53,1.13-.51,2.27-.17,3.34.36,1.13.29,2.13-.15,3.17-.38.89-.32,1.68.17,2.59.74,1.37.4,2.89.01,4.32-.15.54-.24.93.09,1.43.23.35.25.84.35,1.28.27,1.21-.27,2.51.44,3.67.09.16.05.48-.05.66-1.06,1.98-.43,4.01-.31,6.06.14,2.31.06,4.63.09,6.95,0,.45-.03.94.13,1.34.4,1.01.42,1.99.18,3.03-.09.41-.07.92.09,1.3.89,2.15,1.87,4.27,2.76,6.42.51,1.22,1.18,1.87,2.55,2.25.52,2.01.12,2.76-1.79,3.26-.77.2-1.56.47-2.34.49-1.39.05-2.78.23-3.86-1.17-.61-.8-1.75-1.17-2.58-1.82-.48-.37-1.08-.88-1.16-1.39-.15-.99-.7-1.68-1.25-2.38-.95-1.2-1.2-2.55-1.1-4.01,0-.06.05-.12.04-.17-.27-.97-.54-1.93-.8-2.9-.25-.93.1-2-1.03-2.73-.65-.42-.89-1.39-.7-2.34.26-1.34.27-2.73.6-4.04.47-1.84-.05-3.59-.21-5.38-.03-.28-.23-.59-.16-.83.75-2.45-.17-4.88-.06-7.31.05-1.1.55-2.18.95-3.64-.11-.07-.51-.22-.76-.5-.24-.27-.5-.73-.42-1.03.46-1.96-.3-4.04.79-5.97.69-1.21.05-2.58-.42-3.8-.45-1.18-.44-2.18.44-3.17.26-.29.31-.82.36-1.24.06-.62.05-1.25.03-1.87-.02-.37-.02-.8-.21-1.09-.51-.78-.46-1.47.04-2.23.35-.54.48-1.1.19-1.78-.17-.42-.06-1,.05-1.49.39-1.78.76-3.5.37-5.41-.26-1.31.08-2.84.51-4.16.3-.91.38-1.72-.12-2.39-1.09-1.48-.59-2.94.15-4.15,1.17-1.9.92-3.7.18-5.55-.25-.63-.39-1.17-.16-1.8.39-1.1.36-2.32,1.12-3.32.27-.35.32-.99.25-1.46-.29-2-.24-3.98.11-5.97.05-.31.03-.71-.13-.96-1.32-2.04-.8-4.05.02-6.08.09-.21.18-.42.3-.69-.59-1.24-1.15-2.45-2.48-3.28-1.03-.64-1.78-1.73-2.64-2.63-.15-.16-.28-.4-.28-.61-.03-.82-.58-1.12-1.18-1.52-1.66-1.11-2.76-2.72-3.65-4.47-.16-.31-.18-.74-.42-.93-1.11-.9-1.6-2.17-2.16-3.41-.08-.19-.3-.43-.46-.44-1.26-.08-1.52-1.01-1.81-1.97-.26-.87-.65-1.52-1.57-2.07-.89-.53-1.36-1.76-1.99-2.7-.4-.61-.66-1.34-1.13-1.88-1.55-1.76-3.13-3.49-4.09-5.67-.07-.15-.16-.34-.29-.42-1.63-.97-2-2.81-2.93-4.26-.52-.81-1.13-1.55-1.71-2.32-.1-.13-.33-.21-.37-.35-.6-2-2.21-3.4-3.09-5.23-.8-1.68-1.54-3.39-2.33-5.08-.58-1.24-.44-1.82.79-2.31,2.15-.87,3.97-.33,5,2.07.13.31.15.81.38.92,1.45.75,1.84,2.21,2.56,3.48.29.52.96.81,1.37,1.28.79.88,1.7,1.72,2.23,2.74,1,1.9,2.35,3.49,3.78,5.06.45.49.76,1.11,1.13,1.67.93,1.41,1.86,2.82,2.79,4.24.56.86,1.1,1.73,1.66,2.58.65.99,1.2,2.06,2.31,2.67,1.41.77,1.58,2.33,2.07,3.62.26.69.55,1.12,1.12,1.56.76.58,1.43,1.32,2,2.1.9,1.24,1.69,2.56,2.53,3.85.19.29.36.62.62.82.99.76,1.95,1.54,2.62,2.61.09.15.38.17.73.31.07-.56.1-.99.18-1.42.16-.83.36-1.65.5-2.48.09-.54.27-1.13.13-1.63-.49-1.88-.32-3.67.28-5.5.31-.95.36-2.02.37-3.04.02-2.58.17-5.12,1.15-7.56.17-.44.04-1,.02-1.51-.02-.51-.14-1.02-.11-1.53.06-.91.11-1.76-.2-2.68-.21-.61-.06-1.57.32-2.1.48-.67.49-1.23.29-1.91-.28-.93-.13-1.79.29-2.65.19-.39.24-.86.31-1.3.27-1.68.78-3.38.71-5.05-.08-1.94.91-3.72.5-5.72-.23-1.12.06-2.42.39-3.56.25-.85.15-1.6-.08-2.34-.36-1.12-.28-2.03.44-3.04.41-.58.51-1.54.4-2.27-.25-1.68.02-3.19.91-4.61.44-.71.5-1.42.47-2.27-.07-2.45.02-4.9.64-7.3.16-.63.06-1.32.08-1.99.01-.44,0-.88.04-1.31.02-.21.3-.54.24-.59-1.22-1.22,0-1.89.57-2.72.12-.18.14-.43.24-.73ZM174.7,175.85c0-1.6.76-2.96.58-4.58-.11-.97.16-2-.19-3.01-.72-2.08-.43-4.21,0-6.27.36-1.69.15-3.27-.39-4.8-.41-1.17-.6-2.31-.57-3.53.02-1.03-.04-2.06-.11-3.08-.07-1.08-.22-2.15-.25-3.23-.04-1.59-.01-3.19-.01-4.83-.46-.08-.82-.25-1.11-.18-1.45.36-2.82.09-4.24-.22-1.15-.26-2.37-.24-3.55-.38-.55-.07-1.1-.2-1.65-.34-.76-.2-1.5-.56-2.26-.62-1.36-.1-2.73.02-4.09-.05-1.51-.08-2.95-.57-4.5-.63-1.89-.07-3.74-.88-5.61-1.39-.77-.21-1.54-.74-2.28-.69-1.62.1-2.74-.54-3.62-1.93-.21.3-.38.46-.45.65-.45,1.13-1.26,1.83-2.36,2.32-.48.21-1.03.65-1.2,1.11-.42,1.15-1.35,1.82-2.09,2.66-.73.83-1.51,1.62-2.35,2.51-.63.2-1.64.24-2.18.77-.68.67-1.38,1.25-2.25,1.47-2.32.59-3.67,1.91-3.5,4.44-1,.42-2.12.58-2.71,1.22-.86.94-1.77,1.1-2.88,1.09-.31,0-.77.1-.91.32-.72,1.15-1.84,1.26-3.01,1.26-.7,0-1.29.27-1.51.93-.42,1.28-1.16,2.17-2.5,2.5-.14.04-.23.26-.37.34-1.13.61-2.25,1.2-2.77,2.53-.12.3-.79.4-1.21.55-.77.28-1.46.6-1.81,1.45-.19.45-.62.8-.96,1.22-.75,0-1.49-.02-2.23,0-.33.01-.78,0-.95.2-.84.95-2.11,1.59-2.37,2.97-.14.7-.56.95-1.19,1.01-.45.04-.91.09-1.36.1-.95.01-1.77.26-2.52.9-.54.46-1.21.84-1.88,1.07-1.04.37-1.87.89-2.69,1.68-.97.93-1.89,2.01-3.42,2.34-1.56.35-3.02,1.13-4.73,1.81.43.13.65.26.86.24,2.26-.19,4.54.12,6.79-.36.93-.2,1.9-.22,2.86-.32.67-.07,1.36-.05,2.01-.22,1.73-.45,3.42-.72,5.11.16.18.09.43.05.65.05,2.33.06,4.67.13,7,.17.68.01,1.37-.03,2.04-.14,1.01-.16,2-.44,3-.6.95-.15,1.91-.24,2.87-.31.66-.05,1.33.03,1.99,0,1.12-.06,2.23.85,3.33.07,1.42-1,3.04-.76,4.46-.39,2.86.74,5.82,0,8.65.79.26.07.58.01.85-.06.76-.2,1.51-.58,2.27-.62,1.35-.07,2.7-.03,4.04.32.53.14,1.11.09,1.66.07,2.29-.07,4.6-1.05,6.86.24.22.12.65-.1.97-.18.82-.22,1.62-.56,2.45-.65,2.31-.24,4.63-.3,6.9.41.43.13.91.11,1.37.1,2.9-.05,5.79-.1,8.69-.18,2.15-.06,4.3-.16,6.54-.25ZM185.77,175.65c1.45.63,2.7,1.17,4.12.65.26-.09.57-.03.86-.03,2.23,0,4.51.32,6.67-.05,2.7-.45,5.21.05,7.79.52,1.19.22,2.57.26,3.68-.13,1.69-.6,3.26-.84,4.93-.17.2.08.48.16.66.09,1.4-.55,2.95-.39,4.33-.77,2.36-.65,4.65.19,6.95-.09.24-.03.58.15.77.34.66.68,1.33.51,2.02.11.78-.46,1.56-.53,2.47-.33,1.12.25,2.3.28,3.6.42.05-1.62-.46-2.77-1.15-3.91-.61-1-1.61-1.81-1.8-3.03-.29-1.92-.52-3.84-.73-5.77-.15-1.36-.09-2.76-1.18-3.83-.67-.66-.61-1.49-.3-2.24.32-.78.04-1.42-.13-2.15-.39-1.63-.72-3.29-.92-4.96-.13-1.07-.21-1.33-1.35-1.14-.95.15-1.8.06-2.66-.36-.45-.22-.99-.25-1.5-.36-2.12-.45-4.24-.9-6.37-1.35-.17-.04-.36-.14-.5-.09-1.43.47-2.68-.16-3.98-.56-.59-.18-1.24-.15-1.87-.21-1.02-.09-2.05-.2-3.07-.26-.51-.03-1.02.04-1.53,0-.96-.06-2.02.09-2.84-.28-1.43-.66-2.87-.98-4.42-1.13-2.59-.25-5.1-1.06-7.75-1.06-2.04,0-4.08-.41-6.12-.62-.15-.02-.31.1-.55.18-.49,2.26,0,4.52.13,6.78.03.62-.02,1.37.31,1.81,1.17,1.61.43,3.33.31,4.96-.06.84-.1,1.52.29,2.24.53.99.73,2,.33,3.11-.31.85-.56,1.74-.69,2.64-.08.52-.06,1.21.23,1.59.91,1.18.93,2.32.4,3.65-.26.65-.36,1.45-.27,2.14.17,1.23.54,2.43.83,3.66ZM53.04,132.64c-2.83-2.22-5.64-4.43-8.48-6.66-.49,1.61-.48,1.61,0,3.29.07.27.06.57.02.85-.13.9-.27,1.8-.44,2.69-.27,1.44-.72,2.84,0,4.32.24.48,0,1.2-.03,1.8-.02.47-.51.97.11,1.41.93-.08,1.41-.44,1.71-1.48.34-1.22,1.09-2.39,2.59-2.65.31-.05.64-.22.88-.43,1.21-1.02,2.4-2.07,3.63-3.14ZM119.24,141.11c-.4.21-.81.41-1.2.65-.41.25-.8.53-1.44.95,1.57.18,2.15-.71,2.64-1.6Z"/>
    <path class="cls-1" d="M336.57,178.01c-.87-.34-1.93-.92-3.06-1.15-1.19-.24-2.39-.25-3.25-1.3-.19-.23-.63-.44-.91-.39-1.33.22-2.19-.85-3.34-1.13-.31-.08-.57-.52-.77-.85-.82-1.31-1.56-2.67-2.4-3.96-1.43-2.17-.61-3.73,1.49-4.64.82-.35,1.77-.55,2.66-.55,1.81,0,3.65-.14,5.39.59,1.42.6,2.88,1.11,4.31,1.69,1.06.43,2.04.9,2.64,2.03.31.58,1.05,1.02,1.68,1.32,1.37.65,1.72,1.12,1.59,2.61-.02.28-.04.57-.03.86.06,2.54-1.37,4.23-3.85,4.55-.62.08-1.24.19-2.17.33Z"/>
  </g>
</svg>